<?xml version="1.0" standalone="no"?><!DOCTYPE svg PUBLIC "-//W3C//DTD SVG 1.1//EN" "http://www.w3.org/Graphics/SVG/1.1/DTD/svg11.dtd"><svg t="1679059191339" class="icon" viewBox="0 0 1170 1024" version="1.1" xmlns="http://www.w3.org/2000/svg" p-id="2227" xmlns:xlink="http://www.w3.org/1999/xlink" width="228.515625" height="200"><path d="M1023.999717 21.333333333333332H146.283049C65.830976 21.333333333333332 0 87.16572233333333 0 167.61779533333333v731.432206C0 979.5091413333333 65.830976 1045.3330503333334 146.283049 1045.3330503333334h877.718082c80.457726 0 146.288703-65.822496 146.288702-146.283049V167.61779533333333C1170.289833 87.16430933333334 1104.461684 21.333333333333332 1023.999717 21.333333333333332zM146.283049 94.47980433333333h877.718082c36.571822 0 73.146471 36.563342 73.146471 73.137991v655.596132L915.807841 591.8458463333334c-21.942245-36.568996-65.826736-36.568996-95.083063-7.312668L615.923421 789.3359483333334l-212.112612-270.628093c-21.943659-29.2535-58.516894-29.2535-87.773222 0L73.146471 811.4237683333333V167.61779533333333c0-43.881664 29.254914-73.137991 73.136578-73.137991z" fill="#cdcdcd" p-id="2228"></path><path d="M261.028626 308.3138753333333l1.280494 10.909642q19.812328-1.522177 38.502457-2.72635v12.194376h11.227646v-12.836037q12.434646-0.723635 24.384512-1.281907 0.322244-4.812454 0.963904-10.426277-11.948454 0.879103-25.34559 1.683299v-11.94704h25.830369v-9.626321h-25.830369v-11.873546h-11.226232v11.873546h-19.897129l0.011307-0.00848q5.290166-8.822125 10.269395-18.130443H339.486463v-9.626321h-43.316324q3.205476-6.25831 6.255483-12.673502l-11.066524-3.688841q-3.695908 8.66383-7.466723 16.363756h-21.73731v9.626321H278.99512a208.232969 208.232969 0 0 1-11.066524 17.966495v9.784616h32.884394v12.595767q-18.609568 1.045878-39.785778 1.847247zM285.581327 400.0897023333333h11.547062v-7.059679h86.471527v7.059679h11.547063v-68.023081H285.581327z m11.539995-58.077343h86.471527v15.722096h-86.471527z m0 25.188708h86.471527v15.883218h-86.471527z" fill="#cdcdcd" p-id="2229"></path><path d="M347.980691 279.7670503333333q0 27.431693-14.441601 42.35242 5.134697 4.330502 8.98466 8.02217 12.756889-14.515096 15.722096-36.417768h25.830369v33.68859h11.226232v-33.68859h22.941483v-9.627734H359.047215v-20.374841q26.309494-1.284734 56.6329-4.652746l-3.691668-10.587398a413.199687 413.199687 0 0 1-64.009169 5.618063h0.001413zM568.892815 374.42045533333334q-1.44727 9.469439-12.355498 9.466612H534.556911q-11.708184 0-11.711011-12.673502v-42.191298h-12.994332l0.011307 0.00424v44.110627q0 22.141528 21.016501 22.138701h27.751111q20.695671 0 22.783188-16.045753 1.281908-8.02217 2.887472-23.903974-7.386163-2.408347-13.480524-4.652746-0.641661 14.602723-1.927808 23.747093z" fill="#cdcdcd" p-id="2230"></path><path d="M425.463318 390.14537733333333a103.523584 103.523584 0 0 1 8.66383 11.388768q54.870454-29.84004 67.057763-84.066007h81.178534v-12.51238H503.915502a298.244935 298.244935 0 0 0 4.17362-37.22055h62.085601v-12.51238h-130.268391v12.51238h54.707919a224.681526 224.681526 0 0 1-4.012498 37.22055h-62.88697l-0.00424 0.001413v12.51662h60.000911q-14.441601 48.769025-62.248136 72.671586zM712.4693 285.2239913333333v-9.466613h-56.788368q3.448572-4.254181 6.416605-8.66383l-10.585985-4.972162a142.544741 142.544741 0 0 1-36.096937 37.380258q4.654159 4.493037 7.859635 7.859634a211.736661 211.736661 0 0 0 16.606852-14.279066 91.877587 91.877587 0 0 0 19.490085 17.88876q-18.373539 7.462483-46.526041 13.236014a68.105055 68.105055 0 0 1 5.455528 10.267982q32.487243-8.420734 52.13845-17.244273a300.937365 300.937365 0 0 0 48.127365 14.679044 90.366717 90.366717 0 0 1 5.294405-12.034668 222.157284 222.157284 0 0 1-41.47049-8.904099 123.974746 123.974746 0 0 0 30.078896-25.746981z m-42.351007 20.688604a74.123096 74.123096 0 0 1-23.502582-19.651206 5.235045 5.235045 0 0 0 0.483365-0.559686h49.487007l0.002826-0.00424v0.00424h-0.002826q-9.86235 11.306793-26.46779 20.210892z" fill="#cdcdcd" p-id="2231"></path><path d="M609.950607 391.90782433333334h117.43518v7.701339h12.034668V248.64792833333334H597.917353v150.961235h12.034668z m0.005654-131.712833h117.43518v120.16153h-117.43518z" fill="#cdcdcd" p-id="2232"></path><path d="M615.413202 299.50164433333333h0.001413l-0.002827-0.002827 0.001414 0.002827zM643.804559 340.25132633333334l0.002827 0.001413 0.001413-0.001413h-0.00424zM626.963091 361.58724433333333l0.002827 0.001414q40.751096 5.62089 76.200718 13.480524l4.330502-12.194376q-37.059428-7.066746-77.167449-12.355499zM696.584669 337.5263893333333q-25.983011-4.49021-49.570394-8.02217l-3.205476 10.747107q23.102605 3.205476 49.410686 8.502708zM795.735351 341.8568913333333h66.257808v57.753685h13.794288v-69.949475h-79.089605q0.483365-17.966494 0.481952-28.235889h114.70883v-12.034668h-42.996908v-46.366332h-13.635992v46.366332h-58.077343v-43.47462h-13.635993l0.002827 0.00424v66.575812q0 31.127601-4.972162 45.242719-4.974989 15.723509-19.736007 31.284483a98.124591 98.124591 0 0 1 10.108273 11.390181q23.583144-23.901147 26.790032-58.556468z" fill="#cdcdcd" p-id="2233"></path></svg>